# xmcd
#
# Track frame offsets:
#	150
#	20817
#	38200
#	59783
#	105619
#	134816
#	162383
#	196996
#	246666
#	271074
#	289906
#	305025
#
# Disc length: 4187
#
# Revision: 2
# Processed by: cddbd v1.5.1PL0 Copyright (c) Steve Scherf et al.
# Submitted via: CDex 1.50beta10
# Normalized: r1:TDELIM( - )
#
DISCID=c410590c
DTITLE=LRC Jazz Legacy Anthology - A Kiss to build a dream on
DYEAR=1900
DGENRE=Jazz
TTITLE0=Louis Armstrong - A Kiss to Build a Dream On
TTITLE1=Maynard Ferguson - Maria
TTITLE2=Jimmy Ponder/Ron Carter - Seven Minds
TTITLE3=Benny Golson - Up Jumped Spring
TTITLE4=Joe Thomas - Get Into the Wind
TTITLE5=Jimmy McGriff/Hank Crawford - Tapioca
TTITLE6=Peter Appleyard - Cherokee
TTITLE7=Phil Woods - Tenor of the Times
TTITLE8=Roland Hanna - Foggy Day
TTITLE9=Sarah Vaughan - Scat Blues
TTITLE10=Zoot Sims - A Summer Thing
TTITLE11=Harry James - Shiny Stockings
EXTD=
EXTT0=
EXTT1=
EXTT2=
EXTT3=
EXTT4=
EXTT5=
EXTT6=
EXTT7=
EXTT8=
EXTT9=
EXTT10=
EXTT11=
PLAYORDER=
